<svg width="344" height="312" viewBox="0 0 344 312" fill="none" xmlns="http://www.w3.org/2000/svg">
<g clip-path="url(#clip0_2_1323)" filter="url(#filter0_d_2_1323)">
<path d="M4.67565 249.836C7.6088 248.4 8.854 244.589 12.0362 243.595C15.3014 242.574 18.9263 244.589 21.9148 242.38C23.2153 241.414 24.1838 239.812 25.7611 239.232C27.1447 238.735 28.5836 239.287 29.9118 239.702C31.0463 240.061 32.1808 240.392 33.3153 240.751C37.8811 242.159 42.4192 243.54 46.9849 244.948C52.1594 246.522 57.3063 248.124 62.4808 249.698C62.9789 249.864 63.2002 249.063 62.7021 248.897C53.2386 245.998 43.8027 243.098 34.3392 240.199C32.1255 239.536 29.8288 238.514 27.5321 238.238C25.9271 238.045 24.6543 238.68 23.5197 239.729C21.9425 241.193 20.7526 242.546 18.4559 242.656C16.5466 242.767 14.6649 242.27 12.7556 242.574C8.82632 243.181 7.60879 247.461 4.28825 249.091C3.79017 249.367 4.20524 250.085 4.67565 249.836Z" fill="#E8E8E8"/>
<path d="M54.4007 246.357C56.3654 246.854 57.915 244.893 59.6859 244.313C62.0656 243.512 64.6114 243.844 66.7697 245.086C67.2402 245.362 67.6552 244.644 67.1848 244.368C65.3585 243.291 63.2832 242.85 61.1802 243.126C60.267 243.236 59.4092 243.485 58.5791 243.844C57.3892 244.368 56.0057 245.887 54.6221 245.556C54.0963 245.418 53.875 246.219 54.4007 246.357Z" fill="#E8E8E8"/>
<path d="M75.7353 244.286C73.8813 242.767 72.1103 241.138 70.4501 239.398C69.6753 238.597 68.9282 237.741 68.2087 236.885C67.7936 236.388 67.3786 235.891 66.9912 235.394C66.7145 235.035 66.4377 234.676 66.1887 234.317C65.746 233.875 65.746 233.323 66.2164 232.715C66.5484 232.853 67.0742 232.522 66.7975 232.135C65.1095 229.871 63.8643 227.386 63.0619 224.679C62.8958 224.845 62.7298 225.011 62.5638 225.176C63.4769 225.425 64.141 225.894 64.6391 226.668C64.9158 227.109 65.6353 226.723 65.3586 226.253C61.2356 219.129 57.8597 211.618 55.3139 203.803C55.0926 203.941 54.8435 204.079 54.6221 204.217C66.2164 215.594 71.4739 231.417 81.2418 244.148C81.5739 244.562 82.2933 244.148 81.9613 243.733C72.1657 230.948 66.8528 215.07 55.2032 203.637C54.9265 203.361 54.3731 203.637 54.5115 204.051C57.0849 211.949 60.4608 219.516 64.6391 226.695C64.8882 226.557 65.1095 226.419 65.3586 226.281C64.7221 225.315 63.892 224.679 62.7852 224.403C62.4808 224.32 62.1764 224.597 62.2871 224.9C63.1172 227.662 64.3901 230.23 66.1057 232.55C66.2994 232.356 66.4931 232.163 66.6868 231.97C65.912 231.611 65.0542 231.97 64.8605 232.881C64.6115 234.179 66.1887 235.615 66.9082 236.526C69.3709 239.591 72.1657 242.38 75.2095 244.865C75.5692 245.197 76.1503 244.617 75.7353 244.286Z" fill="#E8E8E8"/>
<path d="M72.8297 227.027C67.7382 219.433 63.6152 211.286 60.5714 202.671C60.4884 202.836 60.3777 203.002 60.2947 203.168C61.2355 202.947 62.038 203.306 62.5637 204.134C62.8404 204.604 63.5045 204.19 63.2832 203.72C58.9941 194.469 54.6221 184.832 54.9265 174.421C54.6774 174.504 54.4007 174.559 54.1517 174.642C61.5399 189.83 68.5684 205.211 75.2095 220.731C75.4032 221.172 76.1226 220.841 75.9566 220.399C74.8497 217.085 73.7706 213.744 72.6637 210.43C72.138 208.801 71.5845 207.2 71.0588 205.57C70.6991 204.493 69.9243 202.146 71.4739 201.566C71.3078 201.511 71.1695 201.428 71.0034 201.373C72.9958 205.266 74.9604 209.16 76.9527 213.054C77.2018 213.523 77.9213 213.109 77.6722 212.64C75.5139 208.415 74.5177 203.748 74.7114 198.998C74.4347 199.026 74.158 199.081 73.9089 199.108C79.6645 213.385 86.3333 227.303 93.8322 240.751C94.0812 241.22 94.8007 240.806 94.5516 240.337C87.0804 226.944 80.4393 213.109 74.7114 198.888C74.5454 198.473 73.9089 198.501 73.9089 198.998C73.7152 203.886 74.7667 208.663 76.9804 213.054C77.2295 212.916 77.4508 212.778 77.6999 212.64C75.7075 208.746 73.7429 204.852 71.7506 200.959C71.6676 200.821 71.4462 200.71 71.2802 200.765C68.513 201.787 70.284 205.736 70.8928 207.586C72.3317 211.922 73.7429 216.285 75.1818 220.62C75.4308 220.51 75.6799 220.399 75.9289 220.289C69.2878 204.769 62.2593 189.388 54.8711 174.2C54.6774 173.814 54.0963 174.035 54.0963 174.421C53.7643 184.97 58.2193 194.773 62.5637 204.134C62.8128 203.996 63.0341 203.858 63.2832 203.72C62.5637 202.588 61.4015 202.091 60.0733 202.367C59.8519 202.422 59.7136 202.671 59.7966 202.864C62.8681 211.535 67.0188 219.764 72.138 227.413C72.4147 227.883 73.1341 227.468 72.8297 227.027Z" fill="#E8E8E8"/>
<path d="M18.1515 280.405C27.7257 275.794 37.8257 271.099 48.7558 272.204C53.9303 272.728 58.9388 274.22 64.0856 274.882C66.6867 275.214 69.3155 275.352 71.9166 275.048C74.3517 274.744 76.6484 273.861 79.0281 273.336C82.0996 272.646 84.8944 273.364 87.8552 274.192C90.2903 274.855 92.6977 275.407 95.2157 274.827C95.7415 274.717 95.5201 273.916 94.9944 274.026C89.9582 275.214 85.2264 271.596 80.1349 272.314C77.6169 272.673 75.2648 273.667 72.7744 274.109C70.1456 274.551 67.4615 274.496 64.8051 274.164C59.5752 273.557 54.4837 272.01 49.2262 271.431C44.0517 270.851 38.9325 271.513 33.9794 272.949C28.3345 274.606 22.9939 277.147 17.7364 279.687C17.2383 279.908 17.6811 280.626 18.1515 280.405Z" fill="#E8E8E8"/>
<path d="M74.3241 303.297C77.5616 301.917 80.7438 300.398 83.8153 298.686C85.4202 297.775 86.9975 296.836 88.5747 295.842C89.986 294.93 91.3972 293.632 92.9468 292.97C94.6901 292.252 97.3188 293.605 99.0621 294.13C100.916 294.709 102.77 295.262 104.596 295.842C108.387 297.001 112.178 298.161 115.942 299.321C116.44 299.487 116.661 298.686 116.163 298.52C112.123 297.278 108.055 296.035 104.015 294.792C102.078 294.185 100.141 293.605 98.2043 292.997C96.7101 292.528 94.8284 291.561 93.2512 291.948C91.7846 292.307 90.4564 293.577 89.2112 294.406C87.6062 295.455 85.946 296.477 84.2857 297.443C80.9375 299.349 77.4786 301.061 73.909 302.552C73.4109 302.773 73.8537 303.491 74.3241 303.297Z" fill="#E8E8E8"/>
<path d="M108.747 304.154C110.85 303.104 112.953 302.027 115.056 300.978C116.993 299.984 119.068 298.658 121.282 298.465C123.523 298.244 125.267 299.708 127.204 300.564C128.836 301.282 130.607 301.696 132.378 301.806C136.529 302.027 140.403 299.956 144.526 300.177C147.819 300.37 151.139 303.077 154.377 301.365C154.847 301.116 154.432 300.398 153.962 300.647C151.942 301.724 149.756 300.674 147.763 300.039C146.048 299.487 144.387 299.238 142.589 299.432C138.327 299.873 134.426 301.668 130.054 300.647C126.429 299.818 123.662 296.808 119.76 297.94C117.961 298.465 116.274 299.459 114.613 300.288C112.51 301.337 110.407 302.414 108.304 303.463C107.862 303.684 108.277 304.402 108.747 304.154Z" fill="#E8E8E8"/>
<path d="M124.907 298.161C123.191 296.67 121.642 295.013 120.369 293.108C119.788 292.252 119.262 291.34 118.764 290.429C118.515 289.96 118.294 289.49 118.1 289.021C117.934 288.634 117.768 288.275 117.629 287.889C117.38 287.474 117.491 287.088 117.962 286.729C118.211 286.618 118.46 286.508 118.709 286.397C115.665 281.924 113.756 276.843 113.119 271.486C112.87 271.596 112.649 271.679 112.4 271.79C112.898 272.425 113.396 273.06 113.922 273.723C114.226 274.109 114.807 273.612 114.586 273.225C109.771 264.637 107.197 254.972 107.142 245.142C106.893 245.252 106.672 245.335 106.423 245.445C108.304 246.964 109.743 248.842 110.629 251.079C110.878 250.968 111.127 250.858 111.376 250.747C109.217 246.191 108.775 241.055 110.048 236.195C109.771 236.195 109.522 236.195 109.245 236.195C114.918 252.404 120.563 268.586 126.235 284.796C126.401 285.293 127.204 285.072 127.038 284.575C124.188 276.263 122.776 267.537 122.859 258.728C122.61 258.838 122.389 258.921 122.14 259.032C123.828 260.55 124.879 262.456 125.267 264.693C125.35 265.162 126.097 265.052 126.069 264.582C125.986 262.898 125.876 261.186 125.793 259.501C125.571 259.612 125.377 259.75 125.156 259.86C126.623 260.799 126.899 263.284 127.37 264.831C127.868 266.488 128.366 268.144 128.892 269.829C129.916 273.253 130.967 276.65 131.991 280.074C134.066 286.895 136.142 293.743 138.217 300.564C138.383 301.061 139.185 300.867 139.019 300.343C136.778 292.997 134.564 285.624 132.323 278.279C131.244 274.689 130.137 271.099 129.058 267.509C128.504 265.659 127.951 263.837 127.397 261.986C127.038 260.854 126.623 259.832 125.599 259.17C125.35 259.004 124.962 259.225 124.962 259.529C125.045 261.213 125.156 262.925 125.239 264.61C125.516 264.582 125.793 264.527 126.042 264.499C125.654 262.124 124.492 260.053 122.693 258.452C122.417 258.203 122.002 258.369 121.974 258.755C121.891 267.62 123.302 276.429 126.18 284.823C126.457 284.741 126.706 284.685 126.982 284.603C121.31 268.393 115.665 252.211 109.992 236.001C109.854 235.642 109.3 235.587 109.19 236.001C107.862 241.11 108.36 246.439 110.601 251.189C110.795 251.603 111.542 251.3 111.348 250.858C110.407 248.483 108.941 246.467 106.921 244.865C106.644 244.645 106.201 244.783 106.201 245.169C106.257 255.138 108.858 264.969 113.756 273.667C113.977 273.502 114.198 273.336 114.42 273.17C113.922 272.535 113.423 271.9 112.898 271.237C112.676 270.961 112.151 271.182 112.178 271.541C112.815 277.064 114.752 282.283 117.879 286.867C118.155 287.254 118.709 287.005 118.626 286.536C118.487 285.762 117.574 285.486 116.938 285.956C115.776 286.784 116.91 288.745 117.325 289.684C118.902 293.191 121.254 296.256 124.16 298.769C124.741 299.072 125.322 298.493 124.907 298.161Z" fill="#E8E8E8"/>
<path d="M95.9629 236.222C95.6031 231.031 105.039 234.013 107.668 234.51C111.984 235.311 116.274 236.112 120.59 236.913C129.196 238.514 137.829 240.116 146.435 241.718C146.961 241.828 147.182 241.027 146.656 240.917C136.778 239.067 126.927 237.244 117.048 235.394C112.206 234.483 107.363 233.571 102.521 232.688C100.778 232.356 98.7577 231.997 97.1251 232.909C95.8798 233.571 95.0497 234.786 95.1604 236.222C95.1604 236.747 96.0182 236.747 95.9629 236.222Z" fill="#E8E8E8"/>
<path d="M140.707 240.806C143.585 241.11 145.356 238.376 147.597 237.051C149.507 235.946 151.167 236.802 153.132 237.189C155.318 237.631 157.559 237.686 159.773 237.41C160.298 237.354 160.298 236.526 159.773 236.581C157.282 236.885 154.792 236.775 152.357 236.167C150.89 235.78 149.562 235.311 148.096 235.891C145.494 236.885 143.723 240.309 140.707 239.978C140.182 239.923 140.182 240.751 140.707 240.806Z" fill="#E8E8E8"/>
<path d="M193.476 293.909C200.117 291.589 206.814 289.269 213.676 287.612C220.843 285.9 228.065 285.21 235.426 285.431C242.703 285.652 249.925 286.48 257.175 287.143C264.453 287.833 271.73 288.496 279.008 289.187C287.365 289.96 295.749 290.733 304.106 291.534C304.631 291.589 304.631 290.761 304.106 290.705C289.191 289.325 274.276 287.944 259.334 286.536C244.972 285.21 230.528 283.249 216.222 286.204C208.363 287.833 200.781 290.484 193.227 293.108C192.757 293.273 192.978 294.074 193.476 293.909Z" fill="#E8E8E8"/>
<path d="M222.725 266.736C227.678 265.687 232.326 263.616 237.003 261.738C242.011 259.75 247.075 258.369 252.443 257.9C257.867 257.43 263.318 257.706 268.714 258.038C274.138 258.369 279.561 258.756 285.012 259.142C291.349 259.612 297.714 260.136 304.05 260.689C304.576 260.744 304.576 259.915 304.05 259.86C292.816 258.866 281.581 258.01 270.319 257.292C259.61 256.602 249.068 256.326 238.857 260.109C233.433 262.125 228.176 264.693 222.476 265.908C222.005 266.046 222.199 266.847 222.725 266.736Z" fill="#E8E8E8"/>
<path d="M286.507 234.897C290.464 231.887 294.642 228.932 299.069 226.668C301.228 225.563 303.552 224.679 305.987 224.486C308.616 224.265 311.245 224.79 313.818 225.121C319.048 225.756 324.306 226.143 329.563 226.474C333.05 226.695 337.477 227.192 339.94 224.155C340.272 223.74 339.691 223.161 339.359 223.575C336.564 227.027 330.67 225.729 326.851 225.48C321.594 225.121 316.392 224.624 311.162 223.961C308.92 223.685 306.707 223.464 304.465 223.879C302.252 224.265 300.176 225.149 298.212 226.198C293.95 228.462 289.91 231.279 286.064 234.206C285.677 234.51 286.092 235.228 286.507 234.897Z" fill="#E8E8E8"/>
<path d="M134.177 230.34C138.106 227.386 142.063 224.458 145.992 221.504C149.756 218.687 153.27 215.732 158.195 215.484C162.844 215.263 167.604 215.788 172.225 216.174C177.206 216.588 182.159 217.141 187.084 217.831C191.235 218.411 196.188 219.957 200.117 217.803C200.588 217.555 200.173 216.837 199.702 217.085C197.682 218.19 195.441 218.19 193.2 217.914C190.792 217.61 188.385 217.196 185.977 216.864C181.329 216.229 176.652 215.705 171.948 215.318C167.327 214.931 162.54 214.379 157.919 214.655C153.63 214.904 150.448 217.113 147.099 219.626C142.644 222.94 138.217 226.281 133.762 229.595C133.347 229.954 133.762 230.672 134.177 230.34Z" fill="#E8E8E8"/>
<path d="M289.855 259.529C290.104 257.706 290.464 255.939 290.99 254.172C291.239 253.343 291.488 252.515 291.82 251.686C292.013 251.189 292.539 250.361 293.259 250.554C293.618 250.665 293.784 251.907 293.812 252.156C293.867 252.598 294.476 252.736 294.614 252.266C295.915 248.041 297.409 243.402 301.394 240.944C301.173 240.834 300.979 240.696 300.757 240.585C300.757 241.276 300.73 241.994 300.73 242.684C300.73 243.071 301.311 243.264 301.505 242.905C303.967 237.796 306.651 232.439 311.632 229.346C311.439 229.181 311.217 229.043 311.023 228.877C308.533 235.311 305.628 241.579 302.335 247.655C302.113 248.041 302.667 248.538 302.999 248.152C304.853 245.943 306.734 243.733 309.17 242.132C308.976 241.938 308.782 241.745 308.588 241.552C305.517 248.014 302.169 254.31 298.488 260.44C298.212 260.909 298.931 261.324 299.208 260.854C302.86 254.724 306.236 248.428 309.308 241.966C309.474 241.635 309.114 241.138 308.727 241.386C306.236 243.043 304.299 245.28 302.39 247.544C302.611 247.71 302.833 247.876 303.054 248.041C306.375 241.911 309.308 235.587 311.826 229.07C311.964 228.739 311.494 228.435 311.217 228.601C306.098 231.776 303.331 237.216 300.785 242.463C301.034 242.546 301.311 242.601 301.56 242.684C301.56 241.994 301.588 241.276 301.588 240.585C301.588 240.282 301.228 240.061 300.951 240.226C296.801 242.794 295.168 247.599 293.812 252.045C294.089 252.073 294.365 252.128 294.614 252.156C294.476 250.747 293.203 248.345 291.654 250.14C290.879 251.051 290.574 252.542 290.242 253.675C289.689 255.497 289.302 257.375 289.025 259.28C288.997 259.833 289.772 260.053 289.855 259.529Z" fill="#E8E8E8"/>
<path d="M96.5164 212.916C98.6747 211.756 100.861 210.596 103.24 209.961C105.759 209.298 108.249 209.519 110.767 209.851C115.776 210.513 120.784 211.176 125.765 211.839C126.291 211.922 126.291 211.093 125.765 211.01C120.424 210.292 115.056 209.519 109.716 208.884C107.253 208.58 104.901 208.58 102.521 209.271C100.252 209.933 98.149 211.066 96.0737 212.17C95.6032 212.474 96.046 213.164 96.5164 212.916Z" fill="#E8E8E8"/>
<path d="M264.84 25.6074C266.833 23.923 269.627 24.2543 271.813 25.3313C273.474 26.1321 274.83 27.7614 276.767 27.8442C278.565 27.8994 280.059 26.6844 281.581 25.8836C282.605 25.3589 283.657 24.9999 284.819 25.2484C286.064 25.497 287.143 26.2149 288.278 26.712C292.013 28.3413 294.504 26.0769 297.658 24.2819C298.544 23.7849 299.485 23.3431 300.508 23.2602C301.809 23.1498 302.971 23.7297 304.133 24.2267C305.96 24.9999 307.343 25.3037 309.197 24.5581C311.106 23.8125 312.656 23.923 314.565 24.6133C315.783 25.0551 316.945 25.6074 318.218 25.8836C320.127 26.3254 322.175 26.2149 323.614 24.7514C324.001 24.3648 323.392 23.7849 323.033 24.1715C321.179 26.0493 318.356 25.1656 316.226 24.3372C314.067 23.5087 311.854 22.6251 309.557 23.4811C308.118 24.0334 307.149 24.42 305.6 23.8953C304.548 23.5364 303.58 22.9565 302.501 22.6527C300.868 22.1556 299.346 22.4318 297.852 23.1774C296.136 24.0334 294.642 25.3865 292.843 26.1045C290.464 27.0434 288.61 25.8007 286.451 24.8895C284.874 24.2267 283.38 24.1163 281.803 24.8066C279.893 25.6627 278.039 27.5404 275.798 26.7396C274.608 26.3254 273.667 25.3589 272.588 24.7514C271.675 24.2543 270.679 23.8953 269.655 23.702C267.69 23.3431 265.781 23.6744 264.231 24.9723C263.844 25.3865 264.453 25.9664 264.84 25.6074Z" fill="#E8E8E8"/>
<path d="M274.802 44.468C275.328 44.468 275.328 43.6395 274.802 43.6395C274.276 43.6395 274.276 44.468 274.802 44.468Z" fill="#E8E8E8"/>
<path d="M280.336 47.478C281.637 45.1307 284.708 46.2629 286.617 47.0361C288.527 47.8093 290.242 48.2788 292.262 47.5884C293.923 47.0085 295.417 45.9039 297.132 45.5173C299.512 44.9651 300.868 46.9809 303.026 47.4504C306.402 48.1959 309.806 44.4404 312.988 46.0144C313.874 46.4562 314.482 47.0361 315.534 46.9533C316.502 46.8981 317.388 46.4286 318.329 46.2077C320.957 45.6002 323.697 46.0696 326.049 47.3675C326.519 47.616 326.934 46.8981 326.464 46.6495C324.97 45.8211 323.365 45.324 321.677 45.1584C320.819 45.0755 319.934 45.1031 319.076 45.2412C318.052 45.3793 317.111 45.8211 316.115 46.0144C314.759 46.2629 314.178 45.6002 313.071 45.1307C312.518 44.9098 311.909 44.7994 311.328 44.827C309.944 44.8822 308.616 45.4621 307.343 45.9316C305.711 46.5391 303.967 47.119 302.307 46.2905C300.896 45.6002 299.789 44.5508 298.129 44.5508C294.697 44.5785 292.29 47.8646 288.665 46.8705C285.981 46.1249 281.664 43.5015 279.672 47.0361C279.368 47.5332 280.087 47.9474 280.336 47.478Z" fill="#E8E8E8"/>
<path d="M253.495 80.5323C255.46 78.9859 257.701 79.0688 259.859 80.0629C261.049 80.6152 262.322 81.1399 263.567 80.3943C264.287 79.9524 264.757 79.2621 265.615 79.0136C266.528 78.7374 267.497 78.9307 268.382 79.1516C269.959 79.5382 271.481 80.2286 273.114 80.339C275.051 80.4771 276.822 79.6487 278.704 79.4554C280.724 79.2621 282.135 80.4771 284.016 80.7532C285.843 81.0018 287.254 79.5382 289.08 79.8144C291.294 80.1457 293.48 80.8913 295.666 81.4436C296.192 81.5817 296.413 80.7809 295.887 80.6428C293.591 80.0629 291.211 79.1792 288.859 78.9307C286.867 78.7098 285.428 80.339 283.435 79.7315C281.581 79.1792 280.253 78.3784 278.261 78.6546C276.13 78.9583 274.193 79.7867 272.007 79.3173C270.319 78.9583 268.687 78.1575 266.943 78.0471C266.307 78.0194 265.643 78.0747 265.034 78.3232C264.259 78.627 263.844 79.2621 263.125 79.6763C261.464 80.6428 259.223 78.5993 257.452 78.4613C255.764 78.3232 254.215 78.9031 252.886 79.9248C252.471 80.2838 253.08 80.8637 253.495 80.5323Z" fill="#E8E8E8"/>
<path d="M94.8561 20.2779C95.3819 20.2779 95.3819 19.4495 94.8561 19.4495C94.3303 19.4495 94.3303 20.2779 94.8561 20.2779Z" fill="#E8E8E8"/>
<path d="M97.2911 20.913C97.7892 18.4553 101.054 20.0293 102.244 20.7749C103.6 21.6309 105.039 22.4041 106.699 21.9347C108.498 21.41 109.715 19.8636 111.708 19.7532C113.589 19.6703 115.416 20.5264 117.187 21.0786C118.709 21.5481 120.314 21.8795 121.891 21.4929C123.745 21.051 125.322 19.7532 127.204 19.4218C130.912 18.7866 134.26 21.7966 138.023 20.6368C138.521 20.4711 138.327 19.6703 137.802 19.836C133.872 21.0786 130.137 17.5992 126.152 18.8419C124.104 19.477 122.389 20.913 120.147 20.8301C118.072 20.7473 116.191 19.7532 114.226 19.2561C112.676 18.8695 111.099 18.759 109.605 19.4494C108.747 19.836 108 20.4711 107.142 20.8853C105.731 21.5481 104.541 21.1615 103.268 20.4435C101.885 19.6427 100.695 18.7038 99.0067 18.8419C97.8168 18.9247 96.7653 19.5322 96.5439 20.7473C96.4056 21.2167 97.2081 21.4376 97.2911 20.913Z" fill="#E8E8E8"/>
<path d="M99.8093 182.153C103.102 180.773 106.423 183.23 109.743 183.396C111.459 183.479 113.119 183.065 114.807 182.733C116.938 182.319 118.764 182.291 120.812 183.147C122.057 183.672 123.191 184.003 124.464 183.506C125.184 183.23 125.793 182.761 126.512 182.512C127.314 182.236 128.145 182.181 129.002 182.181C131.963 182.236 134.924 183.258 137.746 181.932C138.217 181.711 137.802 180.994 137.331 181.214C134.315 182.623 130.967 181.076 127.785 181.408C126.263 181.573 125.267 182.457 123.856 182.871C122.168 183.368 120.507 181.932 118.847 181.684C115.277 181.132 111.902 183.12 108.304 182.402C105.427 181.822 102.521 180.137 99.5879 181.38C99.1175 181.573 99.3389 182.374 99.8093 182.153Z" fill="#E8E8E8"/>
<path d="M39.9841 141.477C42.3987 141.477 44.3562 139.524 44.3562 137.114C44.3562 134.705 42.3987 132.751 39.9841 132.751C37.5695 132.751 35.6121 134.705 35.6121 137.114C35.6121 139.524 37.5695 141.477 39.9841 141.477Z" fill="#0A3871"/>
<path d="M294.476 111.488C296.172 111.488 297.548 110.116 297.548 108.423C297.548 106.73 296.172 105.358 294.476 105.358C292.78 105.358 291.405 106.73 291.405 108.423C291.405 110.116 292.78 111.488 294.476 111.488Z" fill="#0A3871"/>
<path d="M266.833 4.70331C268.086 4.70331 269.102 3.68952 269.102 2.43894C269.102 1.18836 268.086 0.174561 266.833 0.174561C265.579 0.174561 264.564 1.18836 264.564 2.43894C264.564 3.68952 265.579 4.70331 266.833 4.70331Z" fill="#0A3871"/>
<path d="M166.884 201.069C168.443 201.069 169.707 199.808 169.707 198.252C169.707 196.697 168.443 195.436 166.884 195.436C165.325 195.436 164.062 196.697 164.062 198.252C164.062 199.808 165.325 201.069 166.884 201.069Z" fill="#0A3871"/>
<path d="M36.7742 41.0991C38.5622 41.0991 40.0117 39.6526 40.0117 37.8682C40.0117 36.0838 38.5622 34.6373 36.7742 34.6373C34.9861 34.6373 33.5366 36.0838 33.5366 37.8682C33.5366 39.6526 34.9861 41.0991 36.7742 41.0991Z" fill="#0A3871"/>
<path d="M148.4 154.456C149.424 154.456 150.254 153.628 150.254 152.606C150.254 151.584 149.424 150.756 148.4 150.756C147.376 150.756 146.546 151.584 146.546 152.606C146.546 153.628 147.376 154.456 148.4 154.456Z" fill="#0A3871"/>
<path d="M323.392 170.196C324.951 170.196 326.215 168.935 326.215 167.38C326.215 165.824 324.951 164.563 323.392 164.563C321.834 164.563 320.57 165.824 320.57 167.38C320.57 168.935 321.834 170.196 323.392 170.196Z" fill="#0A3871"/>
<path d="M15.7441 216.754C16.9056 216.754 17.8471 215.814 17.8471 214.655C17.8471 213.496 16.9056 212.557 15.7441 212.557C14.5827 212.557 13.6411 213.496 13.6411 214.655C13.6411 215.814 14.5827 216.754 15.7441 216.754Z" fill="#0A3871"/>
<path d="M101.746 53.6636C99.3387 58.5514 96.9036 63.4391 94.4962 68.3269C104.458 81.6646 114.419 94.9747 124.381 108.312C126.955 104.419 129.5 100.442 132.074 96.4383C138.134 86.9389 143.917 77.5501 149.451 68.244C147.57 63.4667 145.66 58.6618 143.779 53.8846C142.561 53.2494 141.344 52.6419 140.126 52.0068C128.338 52.0344 116.55 52.062 104.79 52.0896C103.738 52.6419 102.742 53.1666 101.746 53.6636Z" fill="white"/>
<path d="M94.8283 68.5478C96.9313 63.9362 99.0897 59.3522 101.303 54.7959C101.525 54.3264 100.833 53.8846 100.584 54.3816C98.3702 58.938 96.2118 63.522 94.1088 68.1336C93.8874 68.603 94.6069 69.0449 94.8283 68.5478Z" fill="black"/>
<path d="M94.2748 69.0448C104.015 82.3826 113.949 95.5546 124.077 108.616C124.409 109.03 124.99 108.451 124.658 108.036C114.585 95.03 104.707 81.9131 94.9943 68.6306C94.6899 68.2164 93.9705 68.6306 94.2748 69.0448Z" fill="black"/>
<path d="M101.497 54.3264C102.659 53.7189 103.794 53.0837 104.956 52.4762C105.426 52.2277 105.011 51.5097 104.541 51.7583C103.379 52.3658 102.244 53.0009 101.082 53.6084C100.584 53.8846 101.027 54.5749 101.497 54.3264Z" fill="black"/>
<path d="M105.648 52.5314C114.281 52.5314 122.942 52.5314 131.576 52.5314C132.101 52.5314 132.101 51.703 131.576 51.703C122.942 51.703 114.281 51.703 105.648 51.703C105.122 51.703 105.122 52.5314 105.648 52.5314Z" fill="black"/>
<path d="M149.839 68.1611C148.095 63.5496 146.297 58.9932 144.443 54.4092C144.249 53.9122 143.447 54.1331 143.64 54.6301C145.494 59.1865 147.293 63.7705 149.036 68.3821C149.23 68.8791 150.032 68.6582 149.839 68.1611Z" fill="black"/>
<path d="M148.925 68.5754C140.818 81.8303 132.544 95.0024 124.104 108.064C123.8 108.506 124.519 108.92 124.824 108.478C133.264 95.4166 141.537 82.2721 149.645 68.9896C149.922 68.5478 149.202 68.106 148.925 68.5754Z" fill="black"/>
<path d="M143.945 53.5533C142.976 52.9457 142.008 52.3106 141.039 51.7031C140.596 51.4269 140.181 52.1173 140.624 52.4211C141.593 53.0286 142.561 53.6637 143.53 54.2712C144 54.575 144.415 53.857 143.945 53.5533Z" fill="black"/>
<path d="M140.098 51.6202C132.876 51.6202 125.654 51.6202 118.459 51.6202C117.934 51.6202 117.934 52.4487 118.459 52.4487C125.682 52.4487 132.904 52.4487 140.098 52.4487C140.624 52.4487 140.624 51.6202 140.098 51.6202Z" fill="black"/>
<path d="M95.1605 68.962C100.114 66.8357 105.067 64.7094 110.02 62.5831C110.518 62.3622 110.075 61.6718 109.605 61.8651C104.652 63.9914 99.6985 66.1177 94.7454 68.244C94.275 68.465 94.69 69.1829 95.1605 68.962Z" fill="black"/>
<path d="M101.635 54.0779C104.679 54.5473 107.668 55.2101 110.628 56.0385C111.154 56.1766 111.376 55.3758 110.85 55.2377C107.889 54.3816 104.901 53.7465 101.857 53.2771C101.331 53.1942 101.082 53.995 101.635 54.0779Z" fill="black"/>
<path d="M110.407 55.9005C111.071 57.9716 111.652 60.0426 112.15 62.1689C112.261 62.6936 113.064 62.4727 112.953 61.948C112.455 59.8217 111.874 57.7506 111.21 55.6796C111.044 55.1825 110.241 55.3758 110.407 55.9005Z" fill="black"/>
<path d="M111.68 55.9833C119.096 55.9833 126.484 55.9833 133.9 55.9833C134.426 55.9833 134.426 55.1548 133.9 55.1548C126.484 55.1548 119.096 55.1548 111.68 55.1548C111.154 55.1548 111.154 55.9833 111.68 55.9833Z" fill="black"/>
<path d="M133.54 56.149C133.264 57.6678 132.987 59.2142 132.71 60.733C132.627 61.2577 133.43 61.4786 133.513 60.9539C133.789 59.4351 134.066 57.8887 134.343 56.3699C134.426 55.8452 133.623 55.6243 133.54 56.149Z" fill="black"/>
<path d="M112.593 62.2241C119.068 62.2241 125.543 62.2241 132.046 62.2241C132.572 62.2241 132.572 61.3956 132.046 61.3956C125.571 61.3956 119.096 61.3956 112.593 61.3956C112.067 61.3956 112.067 62.2241 112.593 62.2241Z" fill="black"/>
<path d="M134.703 55.9833C137.719 55.3482 140.707 54.713 143.723 54.0779C144.249 53.9675 144.028 53.1666 143.502 53.2771C140.486 53.9122 137.497 54.5474 134.481 55.1825C133.955 55.2929 134.177 56.0938 134.703 55.9833Z" fill="black"/>
<path d="M133.319 61.9756C136.114 62.4174 138.715 63.9914 141.261 65.1788C143.972 66.4491 146.656 67.7194 149.368 68.9896C149.839 69.2105 150.281 68.4926 149.783 68.2716C146.906 66.9185 144.055 65.5931 141.178 64.24C138.743 63.0802 136.224 61.6166 133.54 61.1748C133.015 61.0919 132.793 61.8927 133.319 61.9756Z" fill="black"/>
<path d="M112.842 63.4944C116.44 78.2957 120.009 93.1246 123.606 107.926C123.745 108.451 124.519 108.23 124.409 107.705C120.812 92.9037 117.242 78.0748 113.645 63.2735C113.506 62.7488 112.704 62.9697 112.842 63.4944Z" fill="black"/>
<path d="M132.157 64.4885C128.781 78.7375 125.986 93.1522 123.828 107.65C123.745 108.174 124.547 108.395 124.63 107.871C126.788 93.3731 129.583 78.986 132.959 64.7094C133.098 64.1847 132.295 63.9638 132.157 64.4885Z" fill="black"/>
<path d="M132.433 36.8466C133.679 33.6709 134.37 30.3296 134.481 26.9054C134.509 26.3807 133.679 26.3807 133.651 26.9054C133.54 30.2467 132.849 33.5052 131.631 36.6257C131.437 37.1227 132.24 37.316 132.433 36.8466Z" fill="black"/>
<path d="M138.106 37.3988C140.762 34.3888 143.751 31.7378 147.099 29.5011C147.542 29.1973 147.127 28.4794 146.684 28.7831C143.281 31.0475 140.209 33.7537 137.525 36.8189C137.165 37.2055 137.746 37.7854 138.106 37.3988Z" fill="black"/>
<path d="M143.557 42.5075C146.989 41.4858 150.53 41.0992 154.1 41.3753C154.626 41.4029 154.626 40.5745 154.1 40.5469C150.447 40.2707 146.85 40.6573 143.336 41.7067C142.838 41.8724 143.032 42.6732 143.557 42.5075Z" fill="black"/>
<path d="M85.2541 23.1498C85.5861 28.6174 82.5146 33.8366 77.5891 36.2114C77.3124 36.3495 77.3401 36.7637 77.5891 36.9294C82.0995 39.6356 84.1749 44.6062 85.3648 49.4939C85.5031 50.0186 86.2779 49.7977 86.1672 49.273C84.922 44.1643 82.7083 39.0004 78.0042 36.2114C78.0042 36.4599 78.0042 36.6808 78.0042 36.9294C83.1787 34.4165 86.4439 28.866 86.0842 23.1498C86.0565 22.6251 85.2264 22.6251 85.2541 23.1498Z" fill="#E8E8E8"/>
<path d="M85.5584 23.1498C85.1987 28.8936 88.4639 34.4441 93.6384 36.9294C93.6384 36.6808 93.6384 36.4599 93.6384 36.2114C88.9066 39.028 86.6929 44.1919 85.4477 49.3282C85.3094 49.8529 86.1118 50.0738 86.2502 49.5491C87.4401 44.6338 89.5154 39.6356 94.0535 36.9294C94.3025 36.7913 94.3302 36.3495 94.0535 36.2114C89.128 33.8365 86.0288 28.6174 86.3609 23.1498C86.4162 22.6251 85.5861 22.6251 85.5584 23.1498Z" fill="#E8E8E8"/>
<path d="M220.29 230.451C221.258 230.037 222.586 229.429 224.108 228.573C226.654 227.165 227.927 226.447 228.702 225.315C229.698 223.823 229.31 223.023 230.611 221.531C230.805 221.283 231.718 220.316 232.908 219.792C234.955 218.936 236.865 219.957 240.047 221.09C242.98 222.139 245.277 222.636 249.87 223.658C251.696 224.072 253.91 224.486 257.12 225.48C258.033 225.756 258.753 226.005 259.251 226.171C259.306 226.751 259.334 228.242 258.365 229.595C257.922 230.202 257.314 230.699 256.345 231.141C254.104 232.191 251.973 231.997 250.174 231.914C246.3 231.749 247.905 232.301 238.774 232.467C236.782 232.494 235.149 232.494 234.014 232.494C232.603 233.461 231.192 234.455 229.753 235.477C227.318 237.244 224.994 239.011 222.78 240.751C221.95 237.327 221.12 233.875 220.29 230.451Z" fill="black"/>
<path d="M208.751 195.105C206.758 196.154 206.537 196.54 199.121 202.837C187.555 212.64 186.282 213.164 175.794 222.305C165.75 231.031 163.868 233.212 161.959 236.084C157.199 243.347 156.148 249.422 155.843 252.377C155.428 256.353 154.875 261.876 158.389 266.239C160.603 268.973 163.481 270.105 164.449 270.464C167.355 271.569 169.734 271.431 174.023 271.127C179.724 270.713 184.068 269.608 185.784 269.139C187.665 268.614 192.037 267.316 197.516 264.61C202.663 262.069 204.877 260.192 211.905 255.47C215.032 253.371 219.653 250.306 225.464 246.771C225.824 244.01 225.52 241.856 225.215 240.503C224.496 237.299 223.029 235.09 221.397 232.66C220.068 230.672 218.795 229.153 217.91 228.159C219.985 226.585 222.697 224.321 225.547 221.283C227.457 219.239 230.473 215.981 232.991 211.397C236.09 205.764 239.189 200.075 237.197 196.154C234.07 189.996 219.183 189.72 208.751 195.105Z" fill="white"/>
<path opacity="0.18" d="M233.544 198.115C231.967 201.76 229.366 206.923 225.215 212.446C219.183 220.427 213.095 224.845 203.908 231.39C177.925 249.891 170.952 254.116 171.727 255.884C172.778 258.286 187.416 253.978 189.547 253.343C205.098 248.759 216.554 241.69 223.721 236.526C221.895 233.737 220.068 230.948 218.242 228.187C220.483 226.585 223.583 224.044 226.488 220.261C228.093 218.19 230.528 214.987 232.105 210.154C233.71 205.349 233.766 201.069 233.544 198.115Z" fill="#9B9797"/>
<path d="M208.64 195.077C198.789 202.395 189.187 210.072 179.945 218.107C175.518 221.946 171.09 225.784 166.94 229.899C163.259 233.544 159.828 237.576 157.753 242.38C155.594 247.351 154.986 253.095 155.511 258.48C155.954 262.926 157.587 267.399 161.654 269.719C165.916 272.121 171.284 271.873 175.988 271.376C181.771 270.796 187.472 269.387 192.867 267.206C204.904 262.318 214.34 253.178 225.713 247.13C226.184 246.882 225.769 246.164 225.298 246.412C215.807 251.466 207.727 258.756 198.208 263.809C193.227 266.46 187.859 268.393 182.325 269.581C177.206 270.658 171.45 271.486 166.248 270.492C163.813 270.022 161.461 269.028 159.717 267.206C158.029 265.411 157.116 263.064 156.646 260.661C155.622 255.442 156.092 249.533 157.808 244.507C159.524 239.481 162.872 235.256 166.524 231.5C170.315 227.607 174.466 224.017 178.534 220.455C188.357 211.839 198.54 203.61 209.055 195.823C209.47 195.491 209.083 194.773 208.64 195.077Z" fill="black"/>
<path d="M181.522 251.686C190.598 248.179 198.817 242.933 206.62 237.189C210.466 234.372 214.257 231.445 218.021 228.518C221.729 225.618 225.27 222.553 228.148 218.825C228.48 218.411 227.761 217.997 227.429 218.411C224.496 222.222 220.815 225.287 217.052 228.242C213.344 231.141 209.609 234.013 205.79 236.802C198.153 242.38 190.156 247.517 181.301 250.913C180.803 251.079 181.024 251.88 181.522 251.686Z" fill="black"/>
<path d="M217.606 228.435C222.946 232.909 225.769 239.84 225.021 246.771C224.966 247.296 225.796 247.296 225.852 246.771C226.599 239.647 223.666 232.467 218.187 227.855C217.799 227.496 217.218 228.076 217.606 228.435Z" fill="black"/>
<path d="M224.966 239.067C226.543 238.597 227.927 237.272 229.255 236.333C230.915 235.173 232.548 234.013 234.208 232.853C234.651 232.55 234.236 231.832 233.793 232.135C232.299 233.185 230.777 234.262 229.283 235.311C227.899 236.278 226.377 237.769 224.745 238.266C224.219 238.404 224.44 239.205 224.966 239.067Z" fill="black"/>
<path d="M220.4 230.837C223.527 229.54 226.405 227.772 229.006 225.591C229.421 225.232 228.812 224.652 228.425 225.011C225.962 227.11 223.195 228.794 220.207 230.037C219.708 230.258 219.93 231.058 220.4 230.837Z" fill="black"/>
<path d="M228.702 225.232C229.227 225.232 229.227 224.403 228.702 224.403C228.176 224.403 228.176 225.232 228.702 225.232Z" fill="black"/>
<path d="M229.698 224.238C230.168 223.133 230.666 221.918 231.552 221.062C232.742 219.902 234.181 220.068 235.702 220.399C238.525 221.034 241.292 221.918 244.059 222.719C246.633 223.437 249.206 224.072 251.862 224.376C253.412 224.541 254.713 224.735 256.096 225.425C257.12 225.922 258.005 226.419 259.14 226.53C259.666 226.585 259.666 225.757 259.14 225.701C257.618 225.563 256.428 224.514 254.989 224.044C253.55 223.575 251.945 223.603 250.451 223.354C247.186 222.829 244.004 221.835 240.849 220.896C239.3 220.455 237.75 220.013 236.173 219.654C235.011 219.405 233.793 219.101 232.631 219.46C230.611 220.068 229.642 222.222 228.895 224.017C228.702 224.514 229.504 224.735 229.698 224.238Z" fill="black"/>
<path d="M234.098 233.461C240.019 232.577 245.885 232.439 251.862 232.329C253.938 232.301 256.151 232.053 257.812 230.699C259.223 229.54 260.025 227.855 259.638 226.06C259.527 225.536 258.725 225.756 258.836 226.281C259.361 228.794 257.092 230.644 254.851 231.197C252.554 231.749 250.064 231.473 247.712 231.528C243.063 231.611 238.47 231.997 233.876 232.688C233.35 232.743 233.599 233.544 234.098 233.461Z" fill="black"/>
<path d="M255.1 227.965C257.148 226.502 259.223 225.038 261.271 223.575C261.409 222.636 261.852 220.592 263.54 218.853C264.038 218.328 265.2 217.113 266.943 216.782C268.77 216.423 270.181 217.251 271.758 217.969C274.304 219.129 276.766 219.571 281.637 220.51C285.483 221.228 287.42 221.587 290.187 221.448C293.95 221.228 296.634 220.233 298.239 221.807C298.405 221.973 299.097 222.719 299.042 223.63C298.959 224.79 297.714 225.535 296.717 226.115C292.373 228.601 289.938 229.319 289.938 229.319C283.795 231.113 280.696 232.025 278.039 232.246C275.881 232.411 272.809 232.494 269.102 231.914C268.022 235.615 264.757 237.989 261.686 237.796C257.729 237.548 254.076 233.102 255.1 227.965Z" fill="black"/>
<path d="M215.364 203.554C215.973 201.704 217.107 199.357 219.238 198.584C220.622 198.087 221.894 198.418 222.31 198.529C224.883 199.164 230.168 198.252 240.711 196.457C245.941 195.574 252.554 194.276 260.164 192.343C260.191 193.751 260.164 195.601 260.081 197.755C259.887 202.588 259.389 206.233 259.278 207.089C258.808 210.513 257.978 216.202 255.46 223.105C254.823 224.873 254.187 226.336 253.744 227.33C254.823 227.827 255.985 228.49 257.12 229.429C261.796 233.157 263.152 238.431 263.595 240.668C262.931 241.469 261.935 242.656 260.662 244.009C255.515 249.477 250.756 252.542 241.679 258.148C236.09 261.6 231.994 264.113 225.436 267.979C217.467 272.673 211.02 276.318 202.995 278.61C201.003 279.19 197.848 279.963 193.864 279.549C191.927 279.356 188.44 278.997 185.092 276.567C180.803 273.474 179.447 268.945 178.893 266.957C177.648 262.511 178.119 258.341 179.281 254.006C180.083 250.968 182.989 240.889 193.089 229.539C195.109 227.275 200.864 222.166 212.32 211.949C215.087 209.491 217.356 207.476 218.878 206.15C217.716 205.266 216.554 204.41 215.364 203.554Z" fill="white"/>
<path opacity="0.18" d="M252.997 195.905C252.36 198.335 251.337 201.842 249.787 205.957C235.647 243.347 204.046 259.501 206.62 263.533C208.502 266.515 226.543 259.087 239.549 251.272C249.289 245.418 256.539 239.149 261.381 234.427C260.606 233.295 259.417 231.749 257.618 230.285C255.875 228.877 254.214 228.021 252.969 227.496C253.827 226.253 254.962 224.376 255.93 221.973C256.566 220.427 257.12 218.77 257.839 215.401C259.002 210.071 259.472 205.846 259.61 204.521C259.942 201.345 260.247 197.231 260.191 192.37C257.784 193.53 255.404 194.718 252.997 195.905Z" fill="#9B9797"/>
<path d="M259.776 192.343C259.804 197.562 259.472 202.781 258.753 207.973C258.088 212.639 257.258 217.444 255.543 221.863C253.689 226.64 250.506 230.119 246.66 233.405C242.731 236.747 238.774 240.033 234.817 243.319C230.279 247.102 225.713 250.858 221.175 254.641C220.76 254.972 221.341 255.552 221.756 255.221C230.085 248.317 238.414 241.441 246.688 234.455C250.34 231.362 253.661 228.159 255.653 223.713C257.59 219.405 258.531 214.683 259.278 210.044C260.219 204.189 260.662 198.28 260.606 192.343C260.606 191.791 259.776 191.791 259.776 192.343Z" fill="black"/>
<path d="M215.834 204.328C216.969 204.935 218.104 205.543 219.266 206.15C219.736 206.399 220.151 205.681 219.681 205.432C218.546 204.825 217.412 204.217 216.25 203.61C215.779 203.361 215.364 204.079 215.834 204.328Z" fill="black"/>
<path d="M219.266 205.819C209.415 213.827 199.066 221.752 190.847 231.473C183.764 239.84 177.925 250.444 177.953 261.683C177.953 266.626 179.309 271.79 182.961 275.297C186.614 278.831 191.899 280.212 196.88 279.963C202.967 279.66 208.751 277.257 214.174 274.606C219.985 271.762 225.492 268.393 231.026 265.052C242.426 258.148 255.155 251.714 263.706 241.193C264.038 240.779 263.457 240.199 263.125 240.613C255.958 249.45 245.885 255.11 236.283 260.909C230.998 264.113 225.768 267.371 220.373 270.409C215.087 273.391 209.581 276.235 203.742 277.92C198.263 279.494 192.148 279.825 186.973 277.092C181.993 274.496 179.447 269.47 178.921 264.002C177.897 252.957 183.459 241.966 190.183 233.571C198.568 223.105 209.525 214.766 219.874 206.371C220.262 206.067 219.681 205.487 219.266 205.819Z" fill="black"/>
<path d="M253.55 227.662C258.753 230.147 262.377 235.062 263.235 240.751C263.318 241.276 264.121 241.055 264.038 240.53C263.18 234.648 259.361 229.484 253.993 226.944C253.495 226.723 253.08 227.441 253.55 227.662Z" fill="black"/>
<path d="M255.211 228.38C256.317 227.938 257.203 227.192 258.144 226.474C259.251 225.618 260.385 224.79 261.492 223.934C261.907 223.602 261.492 222.884 261.077 223.216C260.081 223.961 259.085 224.707 258.088 225.48C257.12 226.226 256.151 227.137 254.989 227.579C254.519 227.772 254.713 228.573 255.211 228.38Z" fill="black"/>
<path d="M261.907 223.602C262.46 221.973 263.125 220.371 264.01 218.88C265.228 216.837 267.054 217.058 269.102 217.582C272.284 218.383 275.328 219.598 278.537 220.316C284.763 221.697 291.156 222.166 297.52 221.752C298.046 221.725 298.046 220.896 297.52 220.924C290.021 221.421 282.467 220.648 275.217 218.604C273.474 218.107 271.786 217.472 270.042 216.975C268.714 216.588 267.137 216.146 265.753 216.423C264.508 216.671 263.789 217.61 263.18 218.659C262.322 220.151 261.658 221.752 261.105 223.381C260.939 223.878 261.741 224.099 261.907 223.602Z" fill="black"/>
<path d="M263.097 236.94C265.172 235.366 267.22 233.792 269.295 232.218C269.71 231.887 269.295 231.169 268.88 231.5C266.805 233.074 264.757 234.648 262.682 236.222C262.267 236.553 262.682 237.271 263.097 236.94Z" fill="black"/>
<path d="M269.268 232.025C276.019 233.488 282.909 232.384 289.302 229.954C292.207 228.849 295.528 227.606 298.018 225.729C299.761 224.431 300.01 221.946 297.714 221.062C297.215 220.869 296.994 221.669 297.492 221.863C298.737 222.332 298.876 223.685 298.018 224.624C297.603 225.094 297.022 225.397 296.468 225.729C295.334 226.364 294.172 226.944 293.009 227.496C290.547 228.656 288.001 229.65 285.372 230.423C280.198 231.914 274.774 232.411 269.461 231.252C268.963 231.113 268.742 231.914 269.268 232.025Z" fill="black"/>
<path d="M197.156 112.759C201.362 109.279 207.644 105.082 216.028 102.596C219.957 101.437 224.883 100.001 231.413 100.553C241.43 101.409 248.32 106.324 250.756 108.119C254.574 110.908 257.175 113.863 258.78 115.934C259.085 135.292 259.5 154.677 260.025 174.035C260.191 180 260.357 185.992 260.551 191.957C256.622 194.387 251.115 197.12 244.142 198.722C227.816 202.45 214.23 197.479 208.723 195.077C208.695 190.189 208.391 182.844 206.897 174.035C204.462 159.565 200.671 153.738 198.291 141.284C197.101 134.85 195.967 125.185 197.156 112.759Z" fill="#0A3871"/>
<path d="M247.186 117.536C245.83 119.027 245.581 120.711 245.664 127.173C245.719 133.966 246.079 138.605 246.301 143.99C246.467 147.884 246.605 150.977 246.522 155.008C246.439 160.089 246.107 164.259 245.802 167.048C243.091 170.086 240.683 172.461 238.885 174.173C234.845 178.011 230.445 182.153 223.942 186.047C221.369 187.566 219.155 188.67 217.661 189.361C216.305 189.14 214.783 188.808 213.123 188.394C209.193 187.4 207.561 186.516 204.6 186.516C203.715 186.516 200.92 186.516 200.643 187.51C200.394 188.339 201.944 189.637 203.161 190.272C204.296 190.852 204.794 190.686 205.928 191.211C207.201 191.818 208.031 192.702 208.529 193.365C208.004 194.11 207.201 195.242 206.316 196.706C205.292 198.418 205.07 199.081 203.881 201.124C202.635 203.278 201.999 204.355 201.446 204.907C200.588 205.708 200.062 205.874 196.216 207.586C192.397 209.298 191.733 209.685 191.733 210.154C191.733 210.624 192.48 210.734 195.441 212.004C197.848 213.026 198.07 213.247 199.315 213.606C200.864 214.048 201.805 214.324 202.94 214.075C204.738 213.716 205.901 212.363 206.399 211.645C206.648 211.866 207.256 212.336 208.059 212.363C208.695 212.363 209.221 212.115 209.636 211.783C211.379 210.541 212.237 208.249 213.953 205.681C214.257 205.239 215.336 203.61 217.08 201.787C218.159 200.627 219.155 199.771 219.875 199.191C220.843 198.97 222.282 198.639 223.998 198.142C230.666 196.237 235.481 193.945 239.521 192.012C241.873 190.879 244.53 189.388 249.815 186.433C254.408 183.865 256.788 182.429 258.891 179.613C259.112 179.309 260.247 177.79 261.243 175.553C261.547 174.863 262.627 172.405 263.208 168.098C263.484 166.192 263.484 165.143 263.512 159.178C263.567 151.584 263.567 152.495 263.567 151.722C263.54 140.594 262.959 141.588 262.765 131.37C262.737 130.404 262.71 127.781 261.907 124.467C261.049 120.877 259.97 119.275 259.361 118.475C258.587 117.453 257.646 116.238 256.041 115.547C253.108 114.25 249.206 115.299 247.186 117.536Z" fill="white"/>
<path opacity="0.25" d="M256.068 115.52C256.733 117.701 257.535 120.849 258.088 124.66C258.753 129.272 259.002 134.353 257.507 147.635C256.262 158.736 255.653 164.287 254.048 169.478C251.752 176.879 250.091 182.264 245.028 186.516C241.762 189.25 238.193 190.52 231.026 193.033C225.768 194.883 221.258 195.988 218.159 196.678C215.945 199.661 212.652 203.444 207.976 207.034C204.323 209.85 200.809 211.783 197.904 213.109C198.319 213.385 200.034 214.49 202.359 214.186C205.07 213.827 206.537 211.894 206.786 211.535C207.312 211.922 208.087 212.336 208.944 212.198C210.715 211.922 211.656 209.409 212.127 208.276C213.15 205.929 215.198 202.698 219.791 199.164C222.835 198.363 226.958 197.148 231.745 195.325C238.414 192.757 242.897 190.272 247.712 187.593C255.432 183.285 257.175 181.518 258.448 179.806C260.773 176.686 261.741 173.482 262.156 172.074C262.903 169.561 263.042 166.744 263.318 161.249C263.512 157.162 263.512 154.014 263.512 151.639C263.512 147.552 263.429 144.515 263.346 141.892C263.235 138.081 263.014 133.607 262.46 128.25C262.045 124.356 261.741 122.81 260.856 121.07C259.5 118.309 257.48 116.542 256.068 115.52Z" fill="#9B9797"/>
<path d="M246.771 117.425C245.332 121.015 245.166 124.881 245.249 128.719C245.332 132.944 245.553 137.142 245.747 141.367C246.135 149.927 246.411 158.515 245.387 167.048C245.332 167.573 246.162 167.573 246.218 167.048C247.214 158.709 246.992 150.286 246.605 141.919C246.411 137.777 246.19 133.635 246.079 129.465C245.968 125.461 246.051 121.429 247.573 117.646C247.767 117.149 246.965 116.928 246.771 117.425Z" fill="black"/>
<path d="M246.992 166.33C244.447 167.739 242.399 169.782 240.434 171.908C238.304 174.2 236.173 176.437 233.793 178.481C228.923 182.706 223.444 186.185 217.578 188.891C217.08 189.112 217.522 189.83 217.993 189.609C223.638 187.013 228.923 183.7 233.655 179.696C236.007 177.735 238.165 175.581 240.241 173.344C242.399 170.997 244.557 168.622 247.38 167.076C247.878 166.772 247.463 166.054 246.992 166.33Z" fill="black"/>
<path d="M217.771 188.946C214.728 188.311 211.656 187.648 208.612 186.958C207.09 186.627 205.541 186.213 203.991 185.936C203.023 185.771 201.999 185.688 201.141 186.24C199.813 187.096 199.813 188.67 201.003 189.609C201.861 190.299 202.967 190.603 203.991 190.935C205.652 191.459 207.063 192.122 208.142 193.53C208.474 193.945 209.193 193.53 208.861 193.116C207.893 191.873 206.731 190.99 205.236 190.465C204.213 190.106 203.078 189.885 202.137 189.361C201.473 189.002 200.615 188.449 201.113 187.455C201.584 186.516 202.774 186.599 203.632 186.737C205.928 187.069 208.225 187.731 210.522 188.256C212.874 188.781 215.226 189.278 217.578 189.775C218.076 189.858 218.297 189.057 217.771 188.946Z" fill="black"/>
<path d="M207.478 193.669C206.26 195.905 205.015 198.114 203.798 200.351C203.189 201.428 202.663 202.588 201.944 203.637C201.196 204.714 200.2 205.267 199.038 205.819C196.852 206.841 194.5 207.669 192.397 208.856C191.456 209.409 190.847 210.403 191.65 211.369C192.646 212.557 194.611 212.087 195.939 211.866C197.765 211.563 199.508 210.955 201.169 210.182C204.628 208.525 207.561 205.929 209.664 202.726C209.968 202.284 209.249 201.87 208.944 202.312C207.09 205.184 204.517 207.503 201.501 209.105C200.062 209.851 198.512 210.458 196.935 210.817C196.05 211.038 195.109 211.231 194.168 211.259C193.31 211.314 193.089 211.425 192.674 210.569C192.148 210.071 192.203 209.74 192.812 209.574C193.006 209.492 193.172 209.409 193.365 209.326C195.136 208.497 196.935 207.697 198.706 206.868C200.09 206.233 201.445 205.681 202.386 204.438C203.493 202.975 204.268 201.235 205.153 199.633C206.177 197.783 207.201 195.933 208.197 194.11C208.446 193.613 207.727 193.199 207.478 193.669Z" fill="black"/>
<path d="M220.124 199.716C227.512 197.645 234.679 194.884 241.541 191.459C244.945 189.747 248.265 187.897 251.503 185.854C254.408 184.031 257.48 182.181 259.555 179.392C259.859 178.95 259.14 178.536 258.836 178.978C256.677 181.905 253.301 183.81 250.258 185.688C247.158 187.593 243.948 189.361 240.683 190.99C234.015 194.276 227.069 196.927 219.902 198.943C219.404 199.053 219.625 199.854 220.124 199.716Z" fill="black"/>
<path d="M247.324 118.171C249.621 113.67 255.515 114.691 258.42 117.895C261.907 121.761 262.073 127.422 262.46 132.337C263.291 143.079 263.457 153.904 262.793 164.646C262.46 169.865 261.686 175.388 258.199 179.53C257.867 179.944 258.448 180.524 258.78 180.11C261.907 176.354 262.986 171.605 263.429 166.855C264.01 160.78 264.01 154.622 263.955 148.519C263.899 142.14 263.595 135.734 263.014 129.382C262.571 124.605 261.713 119.331 257.756 116.155C254.38 113.449 248.736 113.532 246.577 117.757C246.356 118.226 247.075 118.64 247.324 118.171Z" fill="black"/>
<path d="M195.192 212.336C197.212 213.247 199.647 214.628 201.944 214.628C204.157 214.6 205.79 212.778 207.284 211.397C211.573 207.42 215.862 203.444 220.151 199.495C220.539 199.136 219.958 198.556 219.57 198.915C215.945 202.284 212.32 205.625 208.695 208.994C207.09 210.458 205.43 212.557 203.41 213.468C201.03 214.545 197.765 212.612 195.635 211.645C195.136 211.397 194.721 212.115 195.192 212.336Z" fill="black"/>
<path d="M206.454 211.756C207.367 213.468 209.387 212.778 210.411 211.59C212.431 209.215 214.008 206.344 215.724 203.775C216.028 203.334 215.309 202.919 215.004 203.361C213.925 204.963 212.846 206.565 211.767 208.166C211.158 209.05 208.474 213.827 207.173 211.342C206.924 210.872 206.205 211.287 206.454 211.756Z" fill="black"/>
<path d="M200.034 210.403C200.864 210.845 201.888 211.287 202.801 210.845C203.272 210.596 203.466 210.21 203.687 209.768C204.074 209.022 204.462 208.442 205.181 207.973C205.624 207.669 205.209 206.951 204.766 207.255C204.102 207.697 203.549 208.249 203.161 208.967C202.884 209.492 202.718 210.127 201.999 210.182C201.473 210.237 200.892 209.906 200.449 209.685C200.007 209.464 199.564 210.154 200.034 210.403Z" fill="black"/>
<path d="M194.362 52.6143C193.393 54.5749 192.425 57.861 192.12 58.9379C191.678 60.4844 190.681 64.1018 190.128 68.9067C189.824 71.5577 189.492 74.4572 189.768 78.2956C189.907 80.1182 190.1 82.9901 191.179 86.5523C191.899 88.9824 192.95 92.4894 195.801 96.0793C198.291 99.1997 201.141 101.16 203.41 102.348C204.849 102.375 206.592 102.293 208.529 101.934C212.016 101.271 214.728 99.9729 216.554 98.9236C216.803 100.332 217.135 101.823 217.55 103.369C218.408 106.573 219.459 109.389 220.511 111.819C221.645 111.626 223.001 111.295 224.44 110.632C229.006 108.506 231.192 104.585 231.967 102.955C231.552 101.354 231.22 99.6139 230.915 97.819C229.864 91.1087 230.141 85.1164 230.805 80.2562C231.386 80.4495 232.327 80.6981 233.489 80.6428C235.758 80.5048 237.307 79.2621 238.082 78.5994C238.746 78.0471 241.762 75.3685 241.652 71.392C241.624 70.4531 241.569 68.1611 239.936 66.9185C238.414 65.7863 236.367 66.2005 234.872 66.5043C233.157 66.8633 231.884 67.5812 231.109 68.0783C231.69 66.1729 232.908 61.2852 231.109 55.5966C230.722 54.3816 228.148 46.6495 220.566 43.3082C210.273 38.7242 197.904 45.5174 194.362 52.6143Z" fill="white"/>
<path opacity="0.24" d="M225.63 52.78C225.851 55.3482 226.018 59.0761 225.63 63.4944C224.44 76.8874 219.127 86.1934 217.744 88.513C215.641 92.0477 212.044 97.1839 206.288 102.237C208.004 102.016 209.968 101.63 212.071 100.884C217.855 98.8408 221.728 95.3338 223.831 93.0418C223.998 96.107 224.523 99.8349 225.768 103.922C226.322 105.662 226.931 107.263 227.567 108.699C229.034 106.794 230.473 104.888 231.939 102.955C231.635 101.16 231.358 99.255 231.164 97.2944C230.528 91.3573 230.528 85.8897 230.86 81.0295C232.105 81.0571 233.904 80.9467 235.813 80.2011C244.17 76.8874 248.929 63.7153 244.419 56.5356C244.225 56.2318 243.229 54.6854 241.181 53.3047C234.845 49.0521 226.792 52.283 225.63 52.78Z" fill="#9B9797"/>
<path d="M192.342 58.1096C191.788 56.2042 191.013 52.5591 191.816 48.0856C192.065 46.7048 192.923 42.2589 195.967 38.7519C200.422 33.6432 206.011 34.6097 213.261 32.014C217.854 30.3848 224.163 26.9606 230.556 18.8972C229.974 21.8795 229.393 24.8895 228.812 27.8718C229.808 28.148 233.157 28.866 236.588 27.1815C242.288 24.3924 242.786 17.6545 242.814 17.3508C243.506 18.8972 244.751 22.3214 244.197 26.6844C243.81 29.6668 242.731 31.9035 241.956 33.2566C242.288 33.6156 244.059 35.4382 246.107 35.162C248.597 34.8307 250.922 31.4341 250.257 27.0434C250.811 28.6727 251.475 31.3513 251.309 34.6374C251.088 38.6414 249.759 41.6514 248.874 43.2807C249.095 43.474 250.506 44.7442 252.499 44.4957C254.242 44.2748 255.736 43.0045 256.317 41.2096C256.179 43.0597 255.847 45.7383 254.768 48.8035C253.301 52.9457 252.084 53.2771 251.475 56.2318C250.506 60.871 252.997 62.445 252.333 66.5872C251.779 70.0666 249.51 72.2481 246.633 75.0372C241.403 80.0906 235.398 82.8244 230.362 84.3432C230.583 82.7968 230.832 81.2504 231.054 79.704C231.69 80.0906 232.797 80.6153 234.18 80.5601C237.003 80.4496 238.774 77.9367 239.715 76.5836C240.794 75.0648 242.593 72.4691 241.624 69.68C240.822 67.4156 238.691 66.4767 238.497 66.3939C236.007 65.3445 232.797 66.2834 230.722 68.824C229.559 64.2676 228.425 59.7388 227.263 55.1825C223.333 52.6972 219.432 50.2395 215.502 47.7542C213.565 47.3952 208.28 46.6772 202.359 49.3006C196.382 51.9516 193.338 56.4527 192.342 58.1096Z" fill="#0A3871"/>
<path d="M191.927 57.9992C189.575 66.7805 188.163 76.1142 190.322 85.0889C192.093 92.3791 196.575 100.691 204.213 103.066C204.711 103.232 204.932 102.431 204.434 102.265C196.769 99.8902 192.48 91.2469 190.903 83.9567C189.049 75.3962 190.46 66.5596 192.701 58.2201C192.867 57.723 192.065 57.5021 191.927 57.9992Z" fill="black"/>
<path d="M204.821 102.928C217.578 101.63 228.231 92.4342 231.22 79.9525C231.33 79.4278 230.556 79.2069 230.417 79.7316C227.512 91.7991 217.246 100.829 204.821 102.099C204.296 102.154 204.268 102.983 204.821 102.928Z" fill="black"/>
<path d="M230.5 80.1734C236.201 83.6528 241.762 76.3626 242.122 71.254C242.316 68.5478 241.071 66.4767 238.387 65.7035C235.896 64.9855 233.184 65.7311 231.413 67.6089C231.054 67.9955 231.635 68.5754 231.995 68.1888C233.461 66.6147 235.675 65.9244 237.805 66.3938C238.912 66.6424 240.13 67.2499 240.766 68.244C241.458 69.321 241.375 70.8121 241.209 71.9995C240.545 76.2798 235.785 82.4102 230.915 79.4278C230.473 79.1793 230.03 79.8973 230.5 80.1734Z" fill="black"/>
<path d="M230.445 80.1182C229.366 87.7674 229.753 95.527 231.579 103.038C231.718 103.563 232.52 103.342 232.382 102.817C230.583 95.4442 230.196 87.8226 231.247 80.3391C231.303 79.8144 230.5 79.5935 230.445 80.1182Z" fill="black"/>
<path d="M216.139 99.034C216.997 103.508 218.325 107.843 220.151 112.04C220.373 112.537 221.092 112.096 220.871 111.626C219.072 107.512 217.772 103.231 216.941 98.8131C216.831 98.2885 216.056 98.5094 216.139 99.034Z" fill="black"/>
<path d="M220.732 112.151C226.073 111.295 230.583 107.622 232.603 102.624C232.797 102.127 231.995 101.906 231.801 102.403C229.892 107.153 225.547 110.549 220.511 111.35C219.985 111.433 220.207 112.234 220.732 112.151Z" fill="black"/>
<path d="M216.803 100C217.938 100.056 218.712 99.2825 219.57 98.6197C220.705 97.7361 221.784 96.7972 222.78 95.8031C224.634 93.9529 226.128 91.8266 227.097 89.3965C227.29 88.8995 226.488 88.6786 226.294 89.1756C225.436 91.3295 224.108 93.2349 222.503 94.8918C221.784 95.665 221.009 96.3554 220.207 97.0457C219.321 97.7913 218.048 99.2273 216.803 99.172C216.277 99.1444 216.277 99.9728 216.803 100Z" fill="black"/>
<path d="M216.858 99.5589C219.21 98.0401 221.396 96.3004 223.444 94.395C223.831 94.036 223.25 93.4285 222.863 93.8151C220.871 95.6929 218.74 97.3774 216.443 98.8685C215.973 99.1171 216.416 99.835 216.858 99.5589Z" fill="black"/>
<path d="M200.588 59.6008C199.038 66.6424 198.153 73.7946 197.959 81.0019C197.959 81.4161 198.512 81.5542 198.734 81.2228C199.813 79.5107 200.892 77.771 201.971 76.0589C202.248 75.6171 201.529 75.1753 201.252 75.6447C200.173 77.3568 199.094 79.0965 198.014 80.8086C198.263 80.8915 198.54 80.9467 198.789 81.0295C198.983 73.905 199.868 66.8081 201.39 59.8493C201.501 59.297 200.698 59.0761 200.588 59.6008Z" fill="black"/>
<path d="M201.695 91.3849C201.03 90.1423 200.588 88.8168 200.477 87.4084C200.394 86.4143 200.615 82.3826 202.497 83.9842C203.493 84.8403 203.355 86.7181 203.382 87.9607C203.382 88.5406 203.382 89.1481 203.327 89.728C203.299 90.1423 203.244 90.5565 203.161 90.9431C202.442 91.4401 201.888 91.4125 201.529 90.8879C201.169 90.5013 200.56 91.0812 200.947 91.4678C202.137 92.6828 203.687 92.738 204.019 90.8326C204.268 89.4795 204.268 88.0436 204.157 86.6905C204.074 85.6135 204.074 84.0671 203.272 83.2387C202.082 82.0236 200.394 83.1558 199.924 84.4537C199.066 86.7733 199.896 89.7004 201.003 91.7991C201.224 92.2686 201.944 91.8544 201.695 91.3849Z" fill="black"/>
<path d="M207.422 66.5319C208.253 70.4256 213.372 70.7293 214.894 67.1395C215.087 66.6424 214.285 66.4215 214.091 66.9185C212.846 69.8457 208.861 69.2934 208.225 66.311C208.114 65.814 207.312 66.0073 207.422 66.5319Z" fill="black"/>
<path d="M205.79 56.9498C206.841 54.6025 209.553 53.4703 212.044 53.995C214.617 54.5473 216.582 56.5355 217.855 58.7171C218.131 59.1865 218.851 58.7723 218.574 58.3029C217.107 55.79 214.783 53.5532 211.795 53.1114C209.11 52.7248 206.233 53.995 205.07 56.5079C204.849 57.0326 205.569 57.4468 205.79 56.9498Z" fill="black"/>
<path d="M189.575 57.8611C190.322 56.3147 191.622 54.6302 193.532 54.6578C195.358 54.6855 196.686 56.2871 197.599 57.6954C197.876 58.1373 198.595 57.723 198.319 57.2812C197.267 55.5967 195.69 53.857 193.532 53.8294C191.318 53.8018 189.768 55.6244 188.883 57.4469C188.634 57.9163 189.353 58.3306 189.575 57.8611Z" fill="black"/>
<path d="M194.472 70.3704C194.961 70.3704 195.358 68.553 195.358 66.3111C195.358 64.0692 194.961 62.2518 194.472 62.2518C193.983 62.2518 193.587 64.0692 193.587 66.3111C193.587 68.553 193.983 70.3704 194.472 70.3704Z" fill="black"/>
<path d="M197.018 114.056C196.935 115.078 196.824 116.486 196.769 118.116C196.52 123.694 196.741 127.919 196.824 129.051C197.046 132.724 197.544 137.529 198.706 143.107C197.599 144.377 195.939 146.255 193.808 148.464C189.768 152.689 187.693 154.843 184.372 157.08C180.664 159.565 178.091 160.338 176.707 160.697C174.964 161.111 173.304 161.498 171.284 161.056C167.991 160.31 166.026 157.88 165.307 156.941C163.481 154.622 163.066 152.357 162.318 147.939C161.765 144.708 161.654 142.251 161.488 137.501C161.405 135.237 161.295 132.475 161.35 128.775C161.405 124.605 161.627 119.662 162.235 114.139C162.512 111.654 162.899 108.589 163.508 105.109C163.038 104.447 162.54 103.784 162.014 103.093C161.461 102.375 160.935 101.685 160.381 100.995C158.97 102.182 157.587 103.397 156.175 104.585C155.816 104.723 155.179 104.944 154.404 104.861C152.938 104.723 152.08 103.701 151.776 103.37C150.42 101.823 150.613 99.8626 150.669 99.476C152.578 97.4049 154.487 95.3614 156.424 93.2903C156.452 92.1029 156.618 90.5565 157.089 88.8444C157.448 87.5742 157.891 86.5248 158.306 85.6412C158.666 84.9232 159.164 84.1224 159.8 83.3216C160.935 81.8304 162.152 80.781 163.149 80.0631C162.346 80.4221 162.152 80.4221 162.097 80.3668C161.959 80.1459 163.259 78.5167 165.086 78.351C166.109 78.2405 166.912 78.6271 167.465 78.8757C168.323 79.2899 168.904 79.8145 169.264 80.2011C170.979 78.7376 172.695 77.274 174.411 75.8381C175.019 76.1971 175.628 76.6113 176.237 77.0255C177.648 77.992 178.921 78.9585 180.056 79.8974C179.641 80.4221 179.115 81.002 178.451 81.5819C177.344 82.5484 176.237 83.1283 175.379 83.5149C175.905 83.6805 176.846 84.0671 177.316 84.9784C177.787 85.8621 177.593 86.8286 177.316 88.0436C177.122 88.872 176.873 89.5348 176.68 89.9766C176.79 91.1364 176.846 92.7104 176.514 94.4778C175.988 97.3773 174.77 99.5312 173.94 100.774C173.913 101.851 173.885 103.535 173.94 105.606C174.162 114.139 175.407 119.137 176.209 125.433C176.68 129.023 177.15 134.353 177.012 141.063C177.648 140.649 178.561 139.986 179.585 139.13C182.186 136.949 183.847 134.767 186.033 131.564C188.191 128.443 189.602 126.124 191.512 123.031C192.701 121.015 194.611 117.95 197.018 114.056Z" fill="white"/>
<path opacity="0.24" d="M171.865 88.8444C171.284 90.1146 170.703 91.4125 170.122 92.738C168.434 96.7145 167.05 100.525 165.916 104.17C165.667 109.914 165.528 114.719 165.418 118.198C165.279 123.473 165.611 129.769 166.22 142.361C166.469 147.553 166.69 150.701 169.126 152.993C171.671 155.367 175.213 155.423 177.205 155.423C187.831 155.395 195.773 146.365 197.959 143.742C194.998 148.768 191.622 152.054 189.325 153.987C186.724 156.168 183.376 158.902 178.174 160.255C173.774 161.415 171.782 161.166 171.256 161.056C167.465 160.145 165.362 156.997 164.615 155.92C162.816 153.241 162.235 150.452 161.903 144.46C161.571 138.302 161.931 136.672 162.042 128.195C162.125 120.104 161.82 117.812 162.429 112.206C162.789 108.92 163.232 106.214 163.591 104.391C162.512 103.259 161.433 102.127 160.354 101.022C159.441 101.823 158.5 102.596 157.559 103.397C156.95 103.922 156.314 104.446 155.705 104.944C155.152 104.999 154.349 104.971 153.491 104.612C151.278 103.673 149.894 100.939 150.586 100.001C151.029 99.3654 152.191 99.8625 153.796 99.8625C156.563 99.8901 158.417 98.4818 162.097 95.8308C164.698 93.9254 167.687 91.7991 171.865 88.8444Z" fill="#9B9797"/>
<path d="M196.658 113.835C190.266 122.644 185.535 132.751 177.455 140.262C177.067 140.621 177.648 141.201 178.036 140.842C186.171 133.276 190.93 123.114 197.378 114.25C197.71 113.835 196.99 113.421 196.658 113.835Z" fill="black"/>
<path d="M172.861 161.691C183.819 160.973 191.678 151.805 198.263 144.018C198.595 143.604 198.014 143.024 197.682 143.438C191.29 151.06 183.542 160.172 172.889 160.89C172.335 160.89 172.335 161.719 172.861 161.691Z" fill="black"/>
<path d="M167.659 83.9015C167.714 86.083 169.153 87.9608 171.256 88.5683C171.782 88.7064 172.003 87.9056 171.478 87.7675C169.734 87.2704 168.544 85.6964 168.489 83.9015C168.461 83.3768 167.631 83.3768 167.659 83.9015Z" fill="black"/>
<path d="M168.517 83.6529C168.793 81.2505 173.082 82.9902 174.245 83.5977C175.379 84.1776 176.514 84.7575 176.763 86.1382C176.956 87.1876 176.624 88.2921 176.348 89.3139C176.209 89.8385 177.012 90.0595 177.15 89.5348C177.538 88.1541 177.953 86.58 177.372 85.2269C176.818 83.8462 175.296 83.2111 174.051 82.6036C172.778 81.9961 171.395 81.5542 169.956 81.7199C169.375 81.8028 168.627 81.9408 168.157 82.3274C167.659 82.714 167.77 82.9902 167.687 83.6805C167.631 84.1776 168.461 84.1776 168.517 83.6529Z" fill="black"/>
<path d="M176.071 89.1482C175.988 91.2469 176.458 93.2903 175.96 95.389C175.49 97.322 174.549 99.1169 173.608 100.857C173.359 101.326 174.079 101.74 174.328 101.271C175.296 99.4483 176.265 97.5981 176.763 95.6099C177.289 93.456 176.818 91.3297 176.901 89.1482C176.929 88.5959 176.099 88.5959 176.071 89.1482Z" fill="black"/>
<path d="M173.608 100.884C172.972 115.437 177.15 129.686 176.486 144.239C176.458 144.763 177.288 144.763 177.316 144.239C177.98 129.686 173.802 115.437 174.438 100.884C174.466 100.359 173.636 100.359 173.608 100.884Z" fill="black"/>
<path d="M160.022 101.188C160.852 102.348 161.737 103.452 162.733 104.474C163.093 104.861 163.674 104.281 163.315 103.894C162.374 102.9 161.516 101.878 160.741 100.774C160.409 100.332 159.69 100.746 160.022 101.188Z" fill="black"/>
<path d="M163.204 104.253C161.627 113.228 160.852 122.341 160.879 131.453C160.907 135.982 161.129 140.538 161.571 145.04C161.931 148.878 162.374 152.91 164.394 156.279C166.22 159.344 169.43 161.663 173.083 161.581C173.608 161.553 173.608 160.725 173.083 160.752C167.963 160.89 164.67 156.334 163.481 151.86C162.152 146.945 162.042 141.588 161.848 136.534C161.433 125.82 162.18 115.05 164.034 104.502C164.089 103.949 163.287 103.728 163.204 104.253Z" fill="black"/>
<path d="M157.974 91.8543C155.373 94.0359 152.855 96.3278 150.475 98.7303C150.088 99.1169 150.696 99.6968 151.056 99.3102C153.464 96.9078 155.954 94.6157 158.555 92.4342C158.97 92.1028 158.389 91.5229 157.974 91.8543Z" fill="black"/>
<path d="M150.226 99.4759C149.811 102.679 152.246 105.385 155.484 105.358C156.009 105.358 156.009 104.529 155.484 104.529C152.689 104.557 150.696 102.21 151.056 99.4759C151.139 98.9512 150.309 98.9512 150.226 99.4759Z" fill="black"/>
<path d="M151.001 99.2827C153.906 99.3655 155.926 101.961 155.318 104.778C155.207 105.303 156.009 105.524 156.12 104.999C156.867 101.602 154.487 98.5647 151.001 98.4542C150.475 98.4542 150.475 99.2827 151.001 99.2827Z" fill="black"/>
<path d="M156.452 104.861C159.607 101.989 162.816 99.1445 165.888 96.1898C167.299 94.8367 168.655 93.456 169.928 91.9648C170.62 91.164 172.363 89.59 172.391 88.4854C172.391 88.3473 172.308 88.1816 172.197 88.1264C172.142 88.0988 172.086 88.0712 172.059 88.0712C171.893 87.9883 171.671 87.9883 171.561 88.1264C171.533 88.154 171.505 88.1816 171.478 88.2369C171.146 88.6511 171.727 89.231 172.059 88.8168C172.086 88.7892 172.114 88.7615 172.142 88.7063C171.976 88.7339 171.81 88.7615 171.644 88.7615C171.588 88.513 171.505 88.513 171.395 88.7892C171.256 88.9825 171.118 89.1758 170.952 89.3691C170.62 89.7833 170.315 90.1975 169.956 90.6117C169.402 91.3021 168.793 91.9648 168.212 92.6276C166.995 93.953 165.722 95.1957 164.421 96.4107C161.599 99.0617 158.721 101.63 155.871 104.253C155.456 104.64 156.065 105.22 156.452 104.861Z" fill="black"/>
<path d="M156.812 93.4007C157.006 92.0752 157.199 90.7498 157.393 89.4243C157.531 88.4301 157.642 87.3256 158.195 86.4419C159.468 84.3985 161.267 85.862 162.235 87.2427C162.65 87.8226 163.038 88.4578 163.453 89.0377C163.674 89.369 164.753 90.5565 164.615 90.9707C164.753 90.8602 164.892 90.7774 165.003 90.6669C164.947 90.6669 164.92 90.6669 164.864 90.6669C164.338 90.6393 164.338 91.4677 164.864 91.4953C164.92 91.4953 164.947 91.4953 165.003 91.4953C165.196 91.4953 165.362 91.3573 165.39 91.1916C165.584 90.5012 165.113 90.087 164.753 89.5347C164.062 88.513 163.398 87.4636 162.678 86.4695C161.931 85.4478 160.963 84.4537 159.579 84.5917C158.251 84.7298 157.448 85.7516 157.033 86.939C156.341 88.8996 156.286 91.1364 155.982 93.1798C155.926 93.7045 156.729 93.9254 156.812 93.4007Z" fill="black"/>
<path d="M158.112 90.2804C158.86 91.744 160.105 93.2352 161.876 93.3456C163.342 93.4561 164.726 92.6276 165.113 91.1917C165.252 90.667 164.449 90.4461 164.311 90.9708C163.951 92.2963 162.484 92.7933 161.267 92.3791C160.105 91.9649 159.358 90.9432 158.832 89.8938C158.583 89.3967 157.863 89.811 158.112 90.2804Z" fill="black"/>
<path d="M159.136 84.8956C159.275 83.5425 160.824 83.1835 161.876 83.5425C162.983 83.9015 163.84 84.8956 164.615 85.6964C165.224 86.3316 166.414 87.2152 166.58 88.0989C166.801 89.2863 165.307 90.0871 164.311 90.3909C163.813 90.5289 164.006 91.3298 164.532 91.1917C165.75 90.8327 167.521 89.7557 167.714 88.3198C167.797 87.7399 167.438 87.4361 167.05 87.0219C166.275 86.1935 165.528 85.3927 164.726 84.5919C163.647 83.4873 162.263 82.2999 160.603 82.576C159.358 82.7693 158.444 83.5977 158.306 84.868C158.251 85.4203 159.081 85.4203 159.136 84.8956Z" fill="black"/>
<path d="M160.63 82.8521C161.018 82.4103 161.212 81.8304 161.571 81.3886C162.457 80.284 163.84 81.3057 164.753 81.9685C166.524 83.2111 168.406 85.4755 166.801 87.6294C166.497 88.0712 167.216 88.4854 167.521 88.0436C169.236 85.724 167.548 83.0454 165.584 81.5542C164.67 80.8639 163.287 79.6212 162.042 79.9802C160.935 80.284 160.741 81.5542 160.049 82.2998C159.69 82.6588 160.271 83.2387 160.63 82.8521Z" fill="black"/>
<path d="M163.425 80.3391C164.394 79.1517 165.667 77.9091 167.161 79.1517C168.157 79.9525 168.793 81.0847 169.153 82.2721C169.319 82.7692 170.094 82.5759 169.956 82.0512C169.485 80.4496 168.406 78.5994 166.801 77.9367C165.169 77.2739 163.813 78.5718 162.844 79.7592C162.512 80.1458 163.093 80.7533 163.425 80.3391Z" fill="black"/>
<path d="M169.541 80.4496C171.256 78.986 172.972 77.5225 174.687 76.0865C175.102 75.7276 174.494 75.1476 174.106 75.5066C172.391 76.9702 170.675 78.4338 168.959 79.8697C168.544 80.2287 169.153 80.8086 169.541 80.4496Z" fill="black"/>
<path d="M175.656 83.9842C177.289 82.7968 178.866 81.5266 180.332 80.1459C180.72 79.7869 180.139 79.207 179.751 79.566C178.312 80.8914 176.818 82.1341 175.241 83.2663C174.798 83.57 175.213 84.288 175.656 83.9842Z" fill="black"/>
<path d="M188.08 81.9132C197.311 81.9132 204.794 74.4457 204.794 65.2341C204.794 56.0225 197.311 48.5551 188.08 48.5551C178.85 48.5551 171.367 56.0225 171.367 65.2341C171.367 74.4457 178.85 81.9132 188.08 81.9132Z" stroke="black" stroke-width="3" stroke-miterlimit="10"/>
<path d="M177.953 67.2776C184.096 63.3563 190.377 59.656 196.797 56.1766C197.267 55.9281 196.852 55.2101 196.382 55.4586C189.962 58.9104 183.681 62.6108 177.538 66.5596C177.095 66.8634 177.51 67.5813 177.953 67.2776Z" fill="black"/>
<path d="M178.644 74.5125C183.708 70.8122 188.827 67.25 194.057 63.7706C194.5 63.4668 194.085 62.7488 193.642 63.0526C188.44 66.532 183.293 70.1219 178.229 73.7946C177.787 74.0983 178.202 74.8163 178.644 74.5125Z" fill="black"/>
</g>
<defs>
<filter id="filter0_d_2_1323" x="0" y="0" width="344" height="312" filterUnits="userSpaceOnUse" color-interpolation-filters="sRGB">
<feFlood flood-opacity="0" result="BackgroundImageFix"/>
<feColorMatrix in="SourceAlpha" type="matrix" values="0 0 0 0 0 0 0 0 0 0 0 0 0 0 0 0 0 0 127 0" result="hardAlpha"/>
<feOffset dy="4"/>
<feGaussianBlur stdDeviation="2"/>
<feComposite in2="hardAlpha" operator="out"/>
<feColorMatrix type="matrix" values="0 0 0 0 0 0 0 0 0 0 0 0 0 0 0 0 0 0 0.25 0"/>
<feBlend mode="normal" in2="BackgroundImageFix" result="effect1_dropShadow_2_1323"/>
<feBlend mode="normal" in="SourceGraphic" in2="effect1_dropShadow_2_1323" result="shape"/>
</filter>
<clipPath id="clip0_2_1323">
<rect width="336" height="304" fill="white" transform="translate(4)"/>
</clipPath>
</defs>
</svg>
